<svg width="598" height="598" viewBox="0 0 598 598" fill="none" xmlns="http://www.w3.org/2000/svg">
<path fill-rule="evenodd" clip-rule="evenodd" d="M595.924 268.453C596.925 278.406 597.438 288.503 597.438 298.72C597.438 463.698 463.698 597.438 298.72 597.438C164.604 597.438 51.1315 509.055 13.3701 387.356H61C96.948 483.726 189.819 552.358 298.72 552.358C438.8 552.358 552.358 438.8 552.358 298.72C552.358 288.478 551.75 278.378 550.57 268.453H595.924ZM291.053 574.253C293.6 574.323 296.156 574.358 298.72 574.358C300 574.358 301.278 574.35 302.554 574.332C301.278 574.349 300 574.357 298.72 574.357C296.797 574.357 294.878 574.337 292.965 574.298C292.327 574.285 291.69 574.269 291.053 574.252V574.253ZM298.72 0C432.438 0.000133753 545.633 87.8612 583.729 209.002H536.033C499.796 113.2 407.213 45.0812 298.72 45.0811C158.639 45.0812 45.0812 158.639 45.0811 298.72C45.0811 308.59 45.645 318.329 46.7422 327.905H1.4082C0.477062 318.303 9.89437e-06 308.567 0 298.72C0.00016284 133.742 133.742 0.000162959 298.72 0ZM24.418 326.028C24.4567 326.422 24.4977 326.816 24.5381 327.21C24.4977 326.816 24.4567 326.422 24.418 326.028ZM24.208 323.799C24.2508 324.273 24.2947 324.746 24.3398 325.22C24.2947 324.746 24.2508 324.273 24.208 323.799ZM24.0156 321.566C24.0562 322.06 24.0985 322.554 24.1416 323.047C24.0985 322.554 24.0562 322.06 24.0156 321.566ZM23.8506 319.458C23.8815 319.873 23.9145 320.288 23.9473 320.703C23.9145 320.288 23.8815 319.873 23.8506 319.458ZM23.6934 317.215C23.7177 317.582 23.7428 317.949 23.7686 318.315C23.7428 317.949 23.7177 317.582 23.6934 317.215ZM23.5586 315.064C23.5768 315.376 23.5969 315.688 23.6162 315.999C23.5969 315.688 23.5768 315.376 23.5586 315.064ZM23.4287 312.662C23.4473 313.035 23.4672 313.408 23.4873 313.781C23.4672 313.408 23.4473 313.035 23.4287 312.662ZM574.21 307.848C574.149 309.7 574.07 311.548 573.974 313.392C574.07 311.549 574.149 309.702 574.21 307.851V307.848ZM23.3154 310.149C23.335 310.63 23.3559 311.109 23.3779 311.589C23.3559 311.109 23.335 310.63 23.3154 310.149ZM23.2314 307.848C23.2498 308.412 23.2683 308.976 23.29 309.539C23.2683 308.976 23.2498 308.412 23.2314 307.848ZM23.1689 305.664C23.1818 306.182 23.1943 306.7 23.21 307.217C23.1943 306.7 23.1818 306.182 23.1689 305.664ZM23.123 303.469C23.1311 303.948 23.1399 304.426 23.1504 304.904C23.1399 304.426 23.1311 303.948 23.123 303.469ZM23.1035 302.282C23.1048 302.382 23.107 302.481 23.1084 302.581C23.0989 301.889 23.0913 301.196 23.0869 300.502L23.1035 302.282ZM574.251 291.008C574.321 293.57 574.357 296.141 574.357 298.72L574.353 300.502C574.356 299.908 574.358 299.314 574.358 298.72C574.358 296.141 574.322 293.57 574.251 291.008ZM92.1484 116.22C92.0072 116.38 91.8665 116.54 91.7256 116.7C91.8665 116.54 92.0072 116.38 92.1484 116.22ZM117.088 91.3828C116.932 91.5192 116.777 91.6562 116.622 91.793C117.191 91.2919 117.762 90.7933 118.335 90.2969L117.088 91.3828ZM144.607 70.1562C143.691 70.7753 142.779 71.3996 141.87 72.0293L143.236 71.0889C143.692 70.7767 144.149 70.4657 144.607 70.1562ZM170.273 54.7754H170.274H170.273ZM308.287 23.2451C307.983 23.2347 307.678 23.2262 307.374 23.2168C307.678 23.2262 307.983 23.2347 308.287 23.2451ZM305.82 23.1729C305.586 23.1669 305.352 23.1616 305.117 23.1562C305.352 23.1616 305.586 23.1669 305.82 23.1729ZM303.548 23.125C303.237 23.1196 302.926 23.1137 302.614 23.1094C302.926 23.1137 303.237 23.1197 303.548 23.125Z" fill="#15304E"/>
<rect x="0.381592" y="278.182" width="105.932" height="49.723" fill="#15304E"/>
<rect x="491.126" y="268.454" width="105.932" height="49.723" fill="#15304E"/>
<g filter="url(#filter0_di_2_69)">
<path d="M309.237 289.267H286.237V459.267H428.237V438.767H309.237V289.267Z" fill="url(#paint0_linear_2_69)"/>
<path d="M233.737 151.267C304.937 119.267 362.07 152.6 381.737 173.267L365.737 189.767C342.137 165.367 302.57 160.267 285.737 160.767C206.137 163.967 191.237 240.433 193.737 278.267C210.137 365.467 287.903 367.267 324.737 357.267C345.537 351.267 357.737 340.767 361.237 336.267V274.267H285.737V253.767H385.237C385.737 284.6 386.437 346.167 385.237 345.767C348.837 378.567 303.737 384.1 285.737 382.767C213.337 379.967 180.57 324.933 173.237 297.767C156.837 210.967 206.737 163.933 233.737 151.267Z" fill="url(#paint1_linear_2_69)"/>
</g>
<defs>
<filter id="filter0_di_2_69" x="170" y="135.3" width="267.937" height="330.667" filterUnits="userSpaceOnUse" color-interpolation-filters="sRGB">
<feFlood flood-opacity="0" result="BackgroundImageFix"/>
<feColorMatrix in="SourceAlpha" type="matrix" values="0 0 0 0 0 0 0 0 0 0 0 0 0 0 0 0 0 0 127 0" result="hardAlpha"/>
<feOffset dx="5" dy="2"/>
<feGaussianBlur stdDeviation="2.35"/>
<feComposite in2="hardAlpha" operator="out"/>
<feColorMatrix type="matrix" values="0 0 0 0 0 0 0 0 0 0 0 0 0 0 0 0 0 0 0.25 0"/>
<feBlend mode="normal" in2="BackgroundImageFix" result="effect1_dropShadow_2_69"/>
<feBlend mode="normal" in="SourceGraphic" in2="effect1_dropShadow_2_69" result="shape"/>
<feColorMatrix in="SourceAlpha" type="matrix" values="0 0 0 0 0 0 0 0 0 0 0 0 0 0 0 0 0 0 127 0" result="hardAlpha"/>
<feOffset dx="3" dy="3"/>
<feGaussianBlur stdDeviation="5.15"/>
<feComposite in2="hardAlpha" operator="arithmetic" k2="-1" k3="1"/>
<feColorMatrix type="matrix" values="0 0 0 0 0 0 0 0 0 0 0 0 0 0 0 0 0 0 0.25 0"/>
<feBlend mode="normal" in2="shape" result="effect2_innerShadow_2_69"/>
</filter>
<linearGradient id="paint0_linear_2_69" x1="357.237" y1="289.267" x2="357.237" y2="459.267" gradientUnits="userSpaceOnUse">
<stop offset="0.375" stop-color="#15304E"/>
<stop offset="1" stop-color="#144D8C"/>
</linearGradient>
<linearGradient id="paint1_linear_2_69" x1="277.95" y1="138" x2="277.95" y2="382.945" gradientUnits="userSpaceOnUse">
<stop offset="0.375" stop-color="#15304E"/>
<stop offset="1" stop-color="#144D8C"/>
</linearGradient>
</defs>
</svg>
